<?xml version="1.0" encoding="UTF-8" standalone="no"?>
<svg
   viewBox="0 0 126 126"
   fill="#fff"
   version="1.1"
   id="svg3"
   sodipodi:docname="EagleAirstrike.svg"
   inkscape:version="1.4-beta (f21c272752, 2024-04-22, custom)"
   xmlns:inkscape="http://www.inkscape.org/namespaces/inkscape"
   xmlns:sodipodi="http://sodipodi.sourceforge.net/DTD/sodipodi-0.dtd"
   xmlns="http://www.w3.org/2000/svg"
   xmlns:svg="http://www.w3.org/2000/svg">
  <defs
     id="defs3" />
  <sodipodi:namedview
     id="namedview3"
     pagecolor="#ffffff"
     bordercolor="#000000"
     borderopacity="0.25"
     inkscape:showpageshadow="2"
     inkscape:pageopacity="0.0"
     inkscape:pagecheckerboard="true"
     inkscape:deskcolor="#d1d1d1"
     inkscape:zoom="9.2539683"
     inkscape:cx="63"
     inkscape:cy="63"
     inkscape:window-width="2560"
     inkscape:window-height="1371"
     inkscape:window-x="0"
     inkscape:window-y="0"
     inkscape:window-maximized="1"
     inkscape:current-layer="svg3" />
  <g
     fill="#de7b6c"
     id="g2">
    <path
       d="m9 47 29-8 9-29 7 7v38H16Z"
       id="path1"
       style="fill:#d46052" />
    <path
       d="m113 114-15-2-16-17H19L9 79l50-19 19-50 17 10v63l17 17ZM34 83l-2 6 4 5 3 1h31l-9-10h-7v-6l-4-5h-8v9h-8Zm61-47-4-4h-8v9h-7l-2 6 6 6h6v5l9 11V36Z"
       id="path2"
       style="fill:#d46052" />
  </g>
  <path
     d="M36 86h9v-9h3l3 3v8h8l7 8v11H54l-7-8v-7h-8l-3-3v-3ZM86 44v-9h4l3 4v7h7l8 8v12H96l-7-9v-7h-8l-3-3v-3h8Z"
     id="path3"
     style="fill:#ffffff" />
</svg>
