<?xml version="1.0" encoding="UTF-8" standalone="no"?>
<svg
   viewBox="0 0 126 126"
   fill="#fff"
   version="1.1"
   id="svg5"
   sodipodi:docname="Eagle110MMRocketPods.svg"
   inkscape:version="1.4-beta (f21c272752, 2024-04-22, custom)"
   xmlns:inkscape="http://www.inkscape.org/namespaces/inkscape"
   xmlns:sodipodi="http://sodipodi.sourceforge.net/DTD/sodipodi-0.dtd"
   xmlns="http://www.w3.org/2000/svg"
   xmlns:svg="http://www.w3.org/2000/svg">
  <defs
     id="defs5" />
  <sodipodi:namedview
     id="namedview5"
     pagecolor="#000000"
     bordercolor="#000000"
     borderopacity="0.25"
     inkscape:showpageshadow="2"
     inkscape:pageopacity="0.0"
     inkscape:pagecheckerboard="0"
     inkscape:deskcolor="#d1d1d1"
     inkscape:zoom="9.2539683"
     inkscape:cx="62.945969"
     inkscape:cy="63"
     inkscape:window-width="2560"
     inkscape:window-height="1371"
     inkscape:window-x="0"
     inkscape:window-y="0"
     inkscape:window-maximized="1"
     inkscape:current-layer="svg5" />
  <g
     fill="#de7b6c"
     id="g2">
    <path
       d="m9 47 29-8 9-29 7 7v38H16Z"
       id="path1"
       style="fill:#d46052;fill-opacity:1" />
    <path
       d="M82 25v4l-8.4-7.4L78 10l17 10v17.2Zm-7 37 8 1 12 12v8l17 17 1 14-15-2-16-17h-6.3L63 83v-8L50 63.4l9-3.4 3.9-10.1ZM19 95 9 79l12.9-4.9L30 83h-4l11.3 12H19Z"
       id="path2"
       style="fill:#d46052;fill-opacity:1" />
  </g>
  <path
     d="M50 69v17H33l8 8h8l11 12h11V96L59 85v-8Z"
     id="path3"
     style="fill:#f9f9f9" />
  <path
     d="m43 80-6-6h-9l5 6h10ZM38 63v9l6 6V68ZM63 38l6 7h9l-6-7h-9ZM74 37l6 6V33l-6-5v9Z"
     id="path4"
     style="fill:#f9f9f9" />
  <path
     d="M69 50h17V34l8 8v7l12 12v10H96L85 59h-8Z"
     id="path5"
     style="fill:#f9f9f9;fill-opacity:1" />
</svg>
