<?xml version="1.0" encoding="UTF-8" standalone="no"?>
<svg
   viewBox="0 0 126 126"
   version="1.1"
   id="svg4"
   sodipodi:docname="EagleClusterBomb.svg"
   inkscape:version="1.4-beta (f21c272752, 2024-04-22, custom)"
   xmlns:inkscape="http://www.inkscape.org/namespaces/inkscape"
   xmlns:sodipodi="http://sodipodi.sourceforge.net/DTD/sodipodi-0.dtd"
   xmlns="http://www.w3.org/2000/svg"
   xmlns:svg="http://www.w3.org/2000/svg">
  <defs
     id="defs4" />
  <sodipodi:namedview
     id="namedview4"
     pagecolor="#ffffff"
     bordercolor="#000000"
     borderopacity="0.25"
     inkscape:showpageshadow="2"
     inkscape:pageopacity="0.0"
     inkscape:pagecheckerboard="true"
     inkscape:deskcolor="#d1d1d1"
     inkscape:zoom="9.2539683"
     inkscape:cx="62.945969"
     inkscape:cy="63"
     inkscape:window-width="2560"
     inkscape:window-height="1371"
     inkscape:window-x="0"
     inkscape:window-y="0"
     inkscape:window-maximized="1"
     inkscape:current-layer="svg4" />
  <path
     fill="#de7b6c"
     fill-rule="evenodd"
     d="m9 47 29-8 9-29 7 7v38H16zm89 65L82 95h-9.026a10.5 10.5 0 0 0-10.482-10l-.288.014c-.069 0-.136-.01-.2-.01a9.959 9.959 0 0 0-8 4c-1.972-2.686-5.412-4-9-4a9.283 9.283 0 0 0-3.943.448 10.012 10.012 0 0 0-5.293 3.922A10.979 10.979 0 0 0 26.994 85l-.622.031L26 85a10 10 0 0 0-9.295 6.328L9 79l50-19 19-50 11.3 6.645A10.989 10.989 0 0 0 87.281 36.4a10.484 10.484 0 0 0-.78 17.73A10.99 10.99 0 0 0 95 73.819V83l17 17 1 14z"
     id="path1"
     style="fill:#d46052" />
  <g
     fill="#fff"
     id="g4">
    <path
       fill-rule="evenodd"
       d="M26.493 88.014A7.493 7.493 0 1 1 19 95.507a7.493 7.493 0 0 1 7.493-7.493zm18.01 0a7.493 7.493 0 1 1-7.493 7.493 7.493 7.493 0 0 1 7.49-7.493zm18 0a7.493 7.493 0 1 1-7.508 7.493 7.5 7.5 0 0 1 7.505-7.493z"
       id="path2"
       style="fill:#ffffff" />
    <circle
       cx="92.5"
       cy="63.5"
       r="7.5"
       id="circle2"
       style="fill:#ffffff" />
    <circle
       cx="92.5"
       cy="45.5"
       r="7.5"
       id="circle3"
       style="fill:#ffffff" />
    <circle
       cx="92.5"
       cy="27.5"
       r="7.5"
       id="circle4"
       style="fill:#ffffff" />
  </g>
</svg>
