<?xml version="1.0" encoding="UTF-8" standalone="no"?>
<svg
   viewBox="0 0 126 126"
   fill="#fff"
   version="1.1"
   id="svg10"
   sodipodi:docname="EagleStrafingRun.svg"
   inkscape:version="1.4-beta (f21c272752, 2024-04-22, custom)"
   xmlns:inkscape="http://www.inkscape.org/namespaces/inkscape"
   xmlns:sodipodi="http://sodipodi.sourceforge.net/DTD/sodipodi-0.dtd"
   xmlns="http://www.w3.org/2000/svg"
   xmlns:svg="http://www.w3.org/2000/svg">
  <defs
     id="defs10" />
  <sodipodi:namedview
     id="namedview10"
     pagecolor="#ffffff"
     bordercolor="#000000"
     borderopacity="0.25"
     inkscape:showpageshadow="2"
     inkscape:pageopacity="0.0"
     inkscape:pagecheckerboard="true"
     inkscape:deskcolor="#d1d1d1"
     inkscape:zoom="9.2539683"
     inkscape:cx="62.945969"
     inkscape:cy="63"
     inkscape:window-width="2560"
     inkscape:window-height="1371"
     inkscape:window-x="0"
     inkscape:window-y="0"
     inkscape:window-maximized="1"
     inkscape:current-layer="svg10" />
  <g
     fill="#de7b6c"
     id="g2">
    <path
       d="m9 47 29-8 9-29 7 7v38H16Z"
       id="path1"
       style="fill:#d46052" />
    <path
       d="M75.8 15.7 78 10l17 10v14.5Zm-9.6 25.5L95 70v13l17 17 1 14-15-2-16-17H71L42.3 66.3 59 60ZM9 79l7.2-2.8L35 95H19Z"
       id="path2"
       style="fill:#d46052" />
  </g>
  <path
     d="m14 69 5-5 15 15-5 5Z"
     id="path3"
     style="fill:#ffffff" />
  <path
     d="m49 89 5-5 15 15-5 5Z"
     id="path6"
     style="fill:#ffffff" />
  <path
     d="m64 19 5-5 15 15-5 5Z"
     id="path7"
     style="fill:#ffffff" />
  <path
     d="m30 85 5-5 15 15-5 5Z"
     id="path4"
     style="fill:#ffffff" />
  <path
     d="m80 35 5-5 15 15-5 5Z"
     id="path8"
     style="fill:#ffffff" />
  <path
     d="m68 38 5-5 15 15-5 5Z"
     id="path9"
     style="fill:#ffffff" />
  <path
     d="m33 73 5-5 15 15-5 5Z"
     id="path5"
     style="fill:#ffffff" />
  <path
     d="m84 54 5-5 15 15-5 5Z"
     id="path10"
     style="fill:#ffffff" />
</svg>
