<?xml version="1.0" encoding="UTF-8" standalone="no"?>
<svg
   viewBox="0 0 126 126"
   fill="#fff"
   version="1.1"
   id="svg3"
   sodipodi:docname="EagleNapalmAirstrike.svg"
   inkscape:version="1.4-beta (f21c272752, 2024-04-22, custom)"
   xmlns:inkscape="http://www.inkscape.org/namespaces/inkscape"
   xmlns:sodipodi="http://sodipodi.sourceforge.net/DTD/sodipodi-0.dtd"
   xmlns="http://www.w3.org/2000/svg"
   xmlns:svg="http://www.w3.org/2000/svg">
  <defs
     id="defs3" />
  <sodipodi:namedview
     id="namedview3"
     pagecolor="#ffffff"
     bordercolor="#000000"
     borderopacity="0.25"
     inkscape:showpageshadow="2"
     inkscape:pageopacity="0.0"
     inkscape:pagecheckerboard="true"
     inkscape:deskcolor="#d1d1d1"
     inkscape:zoom="9.2539683"
     inkscape:cx="62.945969"
     inkscape:cy="63"
     inkscape:window-width="2560"
     inkscape:window-height="1371"
     inkscape:window-x="0"
     inkscape:window-y="0"
     inkscape:window-maximized="1"
     inkscape:current-layer="svg3" />
  <g
     fill="#de7b6c"
     id="g2">
    <path
       d="m9 47 29-8 9-29 7 7v38H16Z"
       id="path1"
       style="fill:#d46052" />
    <path
       d="M98 112 82 95H63.3l.7-19-13-8H38l21-8 7.4-19.6L69 43v11l9 9h17v20l17 17 1 14Zm-7-84H71.2L78 10l17 10v10.3ZM9 79l12.2-4.6L29 83v12H19Z"
       id="path2"
       style="fill:#d46052" />
  </g>
  <path
     d="M24 72h18l3 4v-4l5 1 9 4v18l-5-4v-6h-6l-2-2h-3v11h8l4 6H40l-7-7V81ZM65 31l17 1 3 4 1-4h4l9 5v18l-5-5v-5h-6l-1-2h-4v11h8l5 5H80l-6-6-1-12Z"
     id="path3"
     style="fill:#ffffff" />
</svg>
