<?xml version="1.0" encoding="UTF-8" standalone="no"?>
<svg
   viewBox="0 0 126 126"
   fill="#fff"
   version="1.1"
   id="svg2"
   sodipodi:docname="OrbitalNapalmStrike.svg"
   inkscape:version="1.4-beta (f21c272752, 2024-04-22, custom)"
   xmlns:inkscape="http://www.inkscape.org/namespaces/inkscape"
   xmlns:sodipodi="http://sodipodi.sourceforge.net/DTD/sodipodi-0.dtd"
   xmlns="http://www.w3.org/2000/svg"
   xmlns:svg="http://www.w3.org/2000/svg">
  <defs
     id="defs2" />
  <sodipodi:namedview
     id="namedview2"
     pagecolor="#ffffff"
     bordercolor="#000000"
     borderopacity="0.25"
     inkscape:showpageshadow="2"
     inkscape:pageopacity="0.0"
     inkscape:pagecheckerboard="true"
     inkscape:deskcolor="#d1d1d1"
     inkscape:zoom="37.015873"
     inkscape:cx="53.639151"
     inkscape:cy="77.318182"
     inkscape:window-width="1268"
     inkscape:window-height="1355"
     inkscape:window-x="26"
     inkscape:window-y="23"
     inkscape:window-maximized="0"
     inkscape:current-layer="svg2" />
  <path
     fill="#de7b6c"
     d="m 94.5,93 h 15.3 c 4.74061,8.20693 7.22472,17.52232 7.2,27 H 99 C 98.6,109 97,100.1 94.5,93 Z m 6.28175,-11.738209 C 103.23191,83.72012 105.94228,87.074187 107.9,90 H 104.275 100.65 97.025 93.4 c -1.325,-3.25 -1.255686,-3.744791 -1.932673,-5.503053 1.571227,1.159167 1.704335,1.134482 2.967878,2.096155 1.587729,-1.280606 4.089769,-3.411903 6.346545,-5.331311 z M 90.3,90 H 65 V 67 c 0,0 1.237708,2.665272 2.379021,4.675467 2.627163,-1.123596 2.592938,-1.112891 4.808208,-2.188538 1.296746,0.707372 3.654308,2.300519 4.851494,3.153126 1.197187,0.852607 2.34163,1.775138 3.427404,2.762205 1.085774,0.987068 2.112879,2.038671 3.075388,3.149423 0.962509,1.110752 1.860422,2.280653 2.687813,3.504315 0.827391,1.223662 1.584261,2.501085 2.264681,3.826881 C 89.17443,87.208675 89.778402,88.582845 90.3,90 Z M 35.5,93 H 62 v 27 H 31 c 0.04026,-9.18326 1.559731,-18.30007 4.5,-27 z M 62,67 V 90 H 36.7 c 0.521598,-1.417155 1.12557,-2.791325 1.805991,-4.117121 0.68042,-1.325796 1.437289,-2.603219 2.264681,-3.826881 0.827391,-1.223662 1.725304,-2.393563 2.687813,-3.504315 0.962509,-1.110752 1.989614,-2.162355 3.075388,-3.149423 1.085774,-0.987067 2.230217,-1.909598 3.427404,-2.762205 1.197186,-0.852607 2.447115,-1.635291 3.743861,-2.342662 1.756008,0.616384 1.775814,0.632694 5.375532,2.323614 C 60.627215,70.691859 62,67 62,67 Z M 33.6,90 H 18.1 c 2.036941,-3.041963 5.052382,-6.108181 7.439557,-8.809998 2.062924,2.089433 3.544328,3.412106 6.10148,5.502184 2.123781,-2.61431 2.490547,-3.154438 4.609192,-5.478842 C 36.016762,81.774789 37.114996,80.115666 33.6,90 Z m -5.5,30 H 9 c -0.024718,-9.47768 2.459387,-18.79307 7.2,-27 h 16.3 c -2.4,7.1 -4.1,16 -4.4,27 z m 67.5,43 c -19.281014,14.60097 -45.918986,14.60097 -65.2,0 z m -4,-70 c 2.940269,8.69993 4.459737,17.81674 4.5,27 H 65 V 93 h 26.5 z"
     id="path1"
     style="fill:#d46052"
     sodipodi:nodetypes="cccccccccccccccccccssssscccccccccsssssccccccccccccccccccccccc" />
  <path
     d="m 29.910857,44.16967 12.595514,12.858968 -0.758297,4.942164 2.857549,-2.799003 2.784366,4.271686 3.440209,9.228487 -12.858968,12.595513 -0.641205,-6.370938 4.286322,-4.198505 -4.198504,-4.286322 0.02927,-2.828276 -2.099253,-2.143161 -7.858258,7.697258 5.598006,5.715097 -1.487319,7.056052 -10.496261,-10.715806 0.102454,-9.898965 8.572645,-8.397009 z m 57.979651,0.60009 11.181375,12.844332 -0.758296,4.942164 3.557293,-2.084616 2.799,2.857548 2.72582,9.928238 -12.858957,12.595513 0.07318,-7.070689 3.571935,-3.498754 -4.198504,-4.286322 0.729023,-2.113889 -2.799003,-2.857548 -7.858258,7.697258 5.598006,5.715097 -0.07318,7.070689 -11.196011,-11.430194 0.08782,-8.484827 7.872894,-9.111396 z"
     id="path3"
     style="fill:#ffffff"
     inkscape:transform-center-x="-1.0806175"
     inkscape:transform-center-y="-1.0806175"
     sodipodi:nodetypes="cccccccccccccccccccccccccccccccccccccc" />
  <path
     d="m 56.617387,15.332985 17.167997,17.52709 -1.033577,6.736292 3.894909,-3.815111 3.795159,5.822414 4.68909,12.578655 -17.52709,17.167996 -0.873979,-8.683746 5.842363,-5.722666 -5.722665,-5.842362 0.0399,-3.855011 -2.861334,-2.921181 -10.710999,10.491552 7.63022,7.789819 -2.027253,9.617573 L 44.613462,57.618391 44.753109,44.125858 56.437836,32.680527 Z"
     style="fill:#ffffff;stroke-width:1.36303"
     id="path1-3" />
</svg>
