<?xml version="1.0" encoding="UTF-8" standalone="no"?>
<svg
   viewBox="0 0 126 126"
   fill="#fff"
   version="1.1"
   id="svg11"
   sodipodi:docname="OrbitalGatlingBarrage.svg"
   inkscape:version="1.4-beta (f21c272752, 2024-04-22, custom)"
   xmlns:inkscape="http://www.inkscape.org/namespaces/inkscape"
   xmlns:sodipodi="http://sodipodi.sourceforge.net/DTD/sodipodi-0.dtd"
   xmlns="http://www.w3.org/2000/svg"
   xmlns:svg="http://www.w3.org/2000/svg">
  <defs
     id="defs11" />
  <sodipodi:namedview
     id="namedview11"
     pagecolor="#ffffff"
     bordercolor="#000000"
     borderopacity="0.25"
     inkscape:showpageshadow="2"
     inkscape:pageopacity="0.0"
     inkscape:pagecheckerboard="0"
     inkscape:deskcolor="#d1d1d1"
     inkscape:zoom="9.2539683"
     inkscape:cx="62.945969"
     inkscape:cy="63"
     inkscape:window-width="2560"
     inkscape:window-height="1371"
     inkscape:window-x="0"
     inkscape:window-y="0"
     inkscape:window-maximized="1"
     inkscape:current-layer="svg11" />
  <path
     fill="#de7b6c"
     d="M99 120a91 91 0 0 0-4.5-27h15.3a53.7 53.7 0 0 1 7.2 27H99ZM79 70.3v-1.8A54 54 0 0 1 107.9 90H93.4c-4-9.8-9.4-15.9-14.4-19.7ZM57 90H36.7A42 42 0 0 1 48 74.1V84h9v6Zm-23.4 0H18.1A54 54 0 0 1 48 68.2v2A45 45 0 0 0 33.6 90Zm-5.5 30H9a53.7 53.7 0 0 1 7.2-27h16.3c-2.4 7.1-4.1 16-4.4 27ZM63 174a53.7 53.7 0 0 1-32.6-11h65.2A53.7 53.7 0 0 1 63 174Zm33-54H65V93h26.5a85.5 85.5 0 0 1 4.6 27ZM35.6 93H62v27H31a85.5 85.5 0 0 1 4.5-27Zm54.8-3H70v-6h9V74a42 42 0 0 1 11.3 16Z"
     id="path1"
     style="fill:#d46052" />
  <path
     d="M53 24h3v15h-3z"
     id="path2"
     style="fill:#ffffff" />
  <path
     d="M53 44h3v15h-3z"
     id="path3"
     style="fill:#ffffff" />
  <path
     d="M53 64h3v15h-3z"
     id="path4"
     style="fill:#ffffff" />
  <path
     d="M62 15h3v13h-3z"
     id="path5"
     style="fill:#ffffff" />
  <path
     d="M62 31h3v15h-3z"
     id="path6"
     style="fill:#ffffff" />
  <path
     d="M62 51h3v16h-3z"
     id="path7"
     style="fill:#ffffff" />
  <path
     d="M62 71h3v16h-3z"
     id="path8"
     style="fill:#ffffff" />
  <path
     d="M71 24h3v15h-3z"
     id="path9"
     style="fill:#ffffff" />
  <path
     d="M71 44h3v15h-3z"
     id="path10"
     style="fill:#ffffff" />
  <path
     d="M71 64h3v15h-3z"
     id="path11"
     style="fill:#ffffff" />
</svg>
