<?xml version="1.0" encoding="UTF-8" standalone="no"?>
<svg
   viewBox="0 0 126 126"
   fill="#fff"
   version="1.1"
   id="svg6"
   sodipodi:docname="Orbital380MMHEBarrage.svg"
   inkscape:version="1.4-beta (f21c272752, 2024-04-22, custom)"
   xmlns:inkscape="http://www.inkscape.org/namespaces/inkscape"
   xmlns:sodipodi="http://sodipodi.sourceforge.net/DTD/sodipodi-0.dtd"
   xmlns="http://www.w3.org/2000/svg"
   xmlns:svg="http://www.w3.org/2000/svg">
  <defs
     id="defs6" />
  <sodipodi:namedview
     id="namedview6"
     pagecolor="#ffffff"
     bordercolor="#000000"
     borderopacity="0.25"
     inkscape:showpageshadow="2"
     inkscape:pageopacity="0.0"
     inkscape:pagecheckerboard="0"
     inkscape:deskcolor="#d1d1d1"
     inkscape:zoom="9.2539683"
     inkscape:cx="62.945969"
     inkscape:cy="63"
     inkscape:window-width="2560"
     inkscape:window-height="1371"
     inkscape:window-x="0"
     inkscape:window-y="0"
     inkscape:window-maximized="1"
     inkscape:current-layer="svg6" />
  <path
     fill="#de7b6c"
     d="M99 120a91 91 0 0 0-4.5-27h15.3a53.7 53.7 0 0 1 7.2 27H99Zm-3-31V77.3A54 54 0 0 1 107.9 90H95ZM77 72.6V89l1 1H65v-4.6l8-8.4v-7a33.6 33.6 0 0 1 4 2.6ZM35.5 93H62v27H31a85.5 85.5 0 0 1 4.5-27ZM54 70v7l8 8.4V90H36.7A39 39 0 0 1 54 70ZM18.1 90a54 54 0 0 1 17.6-16.5l4.7 4.5a51 51 0 0 0-6.8 12H18.1Zm10 30H9a53.7 53.7 0 0 1 7.2-27h16.3c-2.4 7.1-4.1 16-4.4 27Zm36.9 0V93h15.8l5.7 6 5.2-5.5A86 86 0 0 1 96 120H65Z"
     id="path1"
     style="fill:#d46052" />
  <path
     d="m35 68 6.5 7 6.5-7V46s3-.8 3-3V26H32v17.1a3 3 0 0 0 3 2.9v22ZM33 17a1 1 0 0 0-1 1v1a1 1 0 0 0 1 1h17a1 1 0 0 0 1-1v-1a1 1 0 0 0-1-1H33Z"
     id="path2"
     style="fill:#ffffff" />
  <path
     d="m57 76 6.5 7 6.5-7V54s3-.8 3-3V34H54v17.1a3 3 0 0 0 3 2.9v22Z"
     id="path3"
     style="fill:#ffffff" />
  <path
     d="M55 25a1 1 0 0 0-1 1v1a1 1 0 0 0 1 1h17a1 1 0 0 0 1-1v-1a1 1 0 0 0-1-1H55Z"
     id="path4"
     style="fill:#ffffff" />
  <path
     d="m80 88 6.5 7 6.5-7V66s3-.8 3-3V46H77v17.1a3 3 0 0 0 3 2.9v22Z"
     id="path5"
     style="fill:#ffffff" />
  <path
     d="M78 37a1 1 0 0 0-1 1v1a1 1 0 0 0 1 1h17a1 1 0 0 0 1-1v-1a1 1 0 0 0-1-1H78Z"
     id="path6"
     style="fill:#ffffff" />
</svg>
