<?xml version="1.0" encoding="UTF-8" standalone="no"?>
<svg
   viewBox="0 0 126 126"
   fill="#fff"
   version="1.1"
   id="svg3"
   sodipodi:docname="OrbitalEMSStrike.svg"
   inkscape:version="1.4-beta (f21c272752, 2024-04-22, custom)"
   xmlns:inkscape="http://www.inkscape.org/namespaces/inkscape"
   xmlns:sodipodi="http://sodipodi.sourceforge.net/DTD/sodipodi-0.dtd"
   xmlns="http://www.w3.org/2000/svg"
   xmlns:svg="http://www.w3.org/2000/svg">
  <defs
     id="defs3" />
  <sodipodi:namedview
     id="namedview3"
     pagecolor="#ffffff"
     bordercolor="#000000"
     borderopacity="0.25"
     inkscape:showpageshadow="2"
     inkscape:pageopacity="0.0"
     inkscape:pagecheckerboard="0"
     inkscape:deskcolor="#d1d1d1"
     inkscape:zoom="9.2539683"
     inkscape:cx="62.945969"
     inkscape:cy="63"
     inkscape:window-width="2560"
     inkscape:window-height="1371"
     inkscape:window-x="0"
     inkscape:window-y="0"
     inkscape:window-maximized="1"
     inkscape:current-layer="svg3" />
  <path
     fill="#de7b6c"
     d="M99 120a91 91 0 0 0-4.5-27h15.3a53.7 53.7 0 0 1 7.2 27H99ZM74.1 67.2A54 54 0 0 1 107.9 90H93.4c-5.3-13-13-19.5-19.2-22.8ZM33.6 90H18.1a54 54 0 0 1 35.3-23.1A42.4 42.4 0 0 0 33.6 90Zm-5.5 30H9a53.7 53.7 0 0 1 7.2-27h16.3c-2.4 7.1-4.1 16-4.4 27ZM63 174a53.7 53.7 0 0 1-32.6-11h65.2A53.7 53.7 0 0 1 63 174Zm33-54H65V93h26.5a85.5 85.5 0 0 1 4.6 27Zm-5.7-30H65v-3l7.6-17.1c8.7 4.4 14.3 12 17.7 20.1ZM62 120H31a85.5 85.5 0 0 1 4.5-27H62v27Zm0-53v23H36.7A37 37 0 0 1 62 67Z"
     id="path1"
     style="fill:#d46052" />
  <path
     d="m65 79 16-42-16 5V12L49 55l16-5v29Z"
     id="path2"
     style="fill:#ffffff" />
  <path
     d="m33 65.7 3.2 5A52 52 0 0 0 27 77l-3.7-3.7a41.7 41.7 0 0 1 9.8-7.6ZM47 60.4l2 5.3a54.8 54.8 0 0 0-10.2 3.7l-3-5.1A51 51 0 0 1 47 60.4ZM61 58.9v5.2a54.2 54.2 0 0 0-9 .9l-1.6-5.3A63.9 63.9 0 0 1 61 59Zm18.3 2.2a60.2 60.2 0 0 1 10.9 3.6L87.6 69a51.2 51.2 0 0 0-10.1-3.4l1.2-3.6Zm23.4 12.2L99 77a31.8 31.8 0 0 0-8.8-6.7l3-4.2a35.4 35.4 0 0 1 9.5 7.2Z"
     id="path3"
     style="fill:#ffffff" />
</svg>
